<svg width="21" height="20" viewBox="0 0 21 20" fill="none" xmlns="http://www.w3.org/2000/svg">
<circle cx="10.4252" cy="9.92522" r="9.5" fill="#AAA9A9"/>
<path fill-rule="evenodd" clip-rule="evenodd" d="M3.42185 9.16967C3.83474 9.03892 4.28096 9.25029 4.41969 9.64188L4.42113 9.64581C4.42288 9.65053 4.42615 9.65928 4.43102 9.67179C4.44075 9.69682 4.4568 9.73679 4.47962 9.78958C4.52533 9.89529 4.59781 10.0516 4.70055 10.2415C4.90682 10.6228 5.23034 11.1311 5.6965 11.6372C6.61964 12.6395 8.09437 13.631 10.3818 13.631C12.6693 13.631 14.144 12.6395 15.0672 11.6372C15.5333 11.1311 15.8569 10.6228 16.0631 10.2415C16.1659 10.0516 16.2383 9.89529 16.284 9.78958C16.3069 9.73679 16.3229 9.69682 16.3327 9.67179C16.3375 9.65928 16.3408 9.65053 16.3425 9.64581L16.3435 9.64337C16.3436 9.64286 16.3438 9.64234 16.344 9.64183C16.4828 9.25027 16.9289 9.03893 17.3418 9.16967C17.7554 9.30065 17.979 9.72538 17.8411 10.1183L17.0922 9.88116C17.8411 10.1183 17.841 10.1187 17.8409 10.1191L17.8406 10.1199L17.8399 10.1219L17.838 10.1271L17.8324 10.1423C17.8279 10.1546 17.8217 10.1711 17.8137 10.1916C17.7978 10.2325 17.7749 10.2892 17.7446 10.3594C17.6839 10.4998 17.5929 10.6951 17.4675 10.9271C17.2173 11.3894 16.8254 12.0061 16.2554 12.6249C15.1062 13.8726 13.2258 15.131 10.3818 15.131C7.53787 15.131 5.65743 13.8726 4.50826 12.6249C3.93826 12.0061 3.54635 11.3894 3.29622 10.9271C3.17076 10.6951 3.0798 10.4998 3.01911 10.3594C2.98874 10.2892 2.96586 10.2325 2.94996 10.1916C2.942 10.1711 2.93579 10.1546 2.93124 10.1423L2.92568 10.1271L2.92381 10.1219L2.92311 10.1199L2.92282 10.1191C2.92269 10.1187 2.92256 10.1183 3.6715 9.88116L2.92256 10.1183C2.78469 9.72538 3.00823 9.30065 3.42185 9.16967Z" fill="white"/>
</svg>
