<svg width="20" height="24" xmlns="http://www.w3.org/2000/svg" xmlns:xlink="http://www.w3.org/1999/xlink" xml:space="preserve" overflow="hidden"><defs><clipPath id="clip0"><rect x="644" y="336" width="20" height="24"/></clipPath><clipPath id="clip1"><rect x="644" y="336" width="20" height="24"/></clipPath><clipPath id="clip2"><rect x="645" y="337" width="18" height="23"/></clipPath><clipPath id="clip3"><rect x="645" y="337" width="18" height="23"/></clipPath></defs><g clip-path="url(#clip0)" transform="translate(-644 -336)"><g clip-path="url(#clip1)"><g clip-path="url(#clip2)"><g clip-path="url(#clip3)"><path d="M1.15058 1.15058 1.15058 19.5599 24.1622 19.5599 24.1622 1.15058 1.15058 1.15058ZM12.6564 11.3908 5.17762 3.45175 20.5954 3.45175 12.6564 11.3908ZM8.74442 10.3552 3.45175 15.763 3.45175 4.83244 8.74442 10.3552ZM10.4703 11.851 12.5413 14.1522 12.7715 14.0371 12.7715 14.1522 15.0726 11.6209 20.5954 17.3738 4.9475 17.3738 10.4703 11.851ZM16.6834 10.0101 21.8611 4.83244 21.8611 15.6479 16.6834 10.0101Z" fill="#CCCCCC" fill-rule="nonzero" fill-opacity="1" transform="matrix(1 0 0 1.02181 619.362 311.216)"/><path d="M46.0233 9.20465 46.0233 7.7089C46.0233 4.02704 43.492 1.15058 39.9252 1.15058L33.8271 1.15058C30.1452 1.15058 27.614 4.02704 27.614 7.7089L27.614 9.20465 25.3128 9.20465 25.3128 24.1622 48.3244 24.1622 48.3244 9.20465 46.0233 9.20465ZM29.9151 7.7089C29.9151 5.40773 31.4109 3.45175 33.712 3.45175L39.8101 3.45175C42.1113 3.45175 43.607 5.29268 43.607 7.7089L43.607 9.20465 29.9151 9.20465 29.9151 7.7089ZM46.0233 21.8611 27.614 21.8611 27.614 11.5058 46.0233 11.5058 46.0233 21.8611Z" fill="#CCCCCC" fill-rule="nonzero" fill-opacity="1" transform="matrix(1 0 0 1.02181 619.362 311.216)"/><path d="M35.668 17.3738 35.668 19.5599 37.9692 19.5599 37.9692 17.3738C38.6595 17.0286 39.1198 16.2232 39.1198 15.4178 39.1198 14.1522 38.0843 13.1166 36.8186 13.1166 35.553 13.1166 34.5175 14.1522 34.5175 15.4178 34.5175 16.2232 34.9777 16.9136 35.668 17.3738Z" fill="#CCCCCC" fill-rule="nonzero" fill-opacity="1" transform="matrix(1 0 0 1.02181 619.362 311.216)"/><path d="M70.1855 9.20465 70.1855 7.7089C70.1855 4.02704 67.6542 1.15058 64.0874 1.15058L57.9893 1.15058C54.3075 1.15058 51.7762 4.02704 51.7762 7.7089L51.7762 9.20465 49.475 9.20465 49.475 24.1622 72.4866 24.1622 72.4866 9.20465 70.1855 9.20465ZM54.0773 7.7089C54.0773 5.40773 55.5731 3.45175 57.8743 3.45175L63.9723 3.45175C66.2735 3.45175 67.7693 5.29268 67.7693 7.7089L67.7693 9.20465 54.0773 9.20465 54.0773 7.7089ZM51.7762 21.8611 51.7762 11.5058 70.1855 11.5058 70.1855 21.8611 51.7762 21.8611Z" fill="#CCCCCC" fill-rule="nonzero" fill-opacity="1" transform="matrix(1 0 0 1.02181 619.362 311.216)"/><path d="M63.6272 13.3467 60.1754 16.7985 58.5646 15.1877 56.9538 16.7985 60.2905 20.0201 61.0959 19.2147 65.238 14.9576Z" fill="#CCCCCC" fill-rule="nonzero" fill-opacity="1" transform="matrix(1 0 0 1.02181 619.362 311.216)"/><path d="M17.1437 39.2348C19.0997 37.8541 20.3653 35.553 20.3653 33.0217 20.3653 28.7645 16.9136 25.3128 12.6564 25.3128 8.39925 25.3128 4.9475 28.7645 4.9475 33.0217 4.9475 35.553 6.21314 37.8541 8.05407 39.2348 4.25715 39.6951 1.15058 43.0318 1.15058 47.1739L1.15058 48.3244 24.1622 48.3244 24.1622 47.1739C24.1622 43.0318 21.1707 39.6951 17.1437 39.2348ZM12.7715 27.614C15.763 27.614 18.1792 30.0302 18.1792 33.0217 18.1792 36.0132 15.763 38.4294 12.7715 38.4294 9.77994 38.4294 7.36372 36.0132 7.36372 33.0217 7.36372 30.0302 9.77994 27.614 12.7715 27.614ZM3.68186 46.0233C4.25715 43.7221 6.55832 41.4209 9.31971 41.4209L16.2232 41.4209C18.9846 41.4209 21.2858 43.7221 21.8611 46.0233L3.68186 46.0233Z" fill="#CCCCCC" fill-rule="nonzero" fill-opacity="1" transform="matrix(1 0 0 1.02181 619.362 311.216)"/><path d="M25.3128 25.3128 25.3128 48.3244 43.7221 48.3244 43.7221 25.3128 25.3128 25.3128ZM41.4209 27.614 41.4209 41.4209 27.614 41.4209 27.614 27.614 41.4209 27.614ZM33.4819 44.8727C33.4819 44.1823 33.9422 43.7221 34.6325 43.7221 35.3229 43.7221 35.7831 44.1823 35.7831 44.8727 35.7831 45.563 35.3229 46.0233 34.6325 46.0233 34.0572 46.0233 33.4819 45.563 33.4819 44.8727Z" fill="#CCCCCC" fill-rule="nonzero" fill-opacity="1" transform="matrix(1 0 0 1.02181 619.362 311.216)"/><path d="M97.2242 4.37221 94.0025 1.15058 83.3021 11.966 77.4342 6.09808 74.2125 9.31971 83.3021 18.4093 86.5237 15.1877Z" fill="#0073E9" fill-rule="nonzero" fill-opacity="1" transform="matrix(1 0 0 1.02181 619.362 311.216)"/><path d="M5.75291 54.0773 5.75291 88.5948 77.089 88.5948 77.089 54.0773 5.75291 54.0773ZM74.7878 86.2936 8.05407 86.2936 8.05407 56.3785 74.7878 56.3785 74.7878 86.2936Z" fill="#888888" fill-rule="nonzero" fill-opacity="1" transform="matrix(1 0 0 1.02181 619.362 311.216)"/><path d="M72.4866 49.475 1.15058 49.475 1.15058 51.7762 1.15058 83.9925 3.45175 83.9925 3.45175 51.7762 72.4866 51.7762Z" fill="#888888" fill-rule="nonzero" fill-opacity="1" transform="matrix(1 0 0 1.02181 619.362 311.216)"/><path d="M10.3552 58.6797 19.5599 58.6797 19.5599 59.8302 10.3552 59.8302Z" fill="#888888" fill-rule="nonzero" fill-opacity="1" transform="matrix(1 0 0 1.02181 619.362 311.216)"/><path d="M58.6797 82.8419 72.4866 82.8419 72.4866 83.9925 58.6797 83.9925Z" fill="#888888" fill-rule="nonzero" fill-opacity="1" transform="matrix(1 0 0 1.02181 619.362 311.216)"/></g></g></g></g></svg>