<svg width="21" height="20" viewBox="0 0 21 20" fill="none" xmlns="http://www.w3.org/2000/svg">
<path d="M9.08881 13.2491C8.7201 12.9558 8.48401 12.5053 8.48401 12C8.48401 11.1163 9.20609 10.4 10.0968 10.4C10.9875 10.4 11.7096 11.1163 11.7096 12C11.7096 12.5053 11.4735 12.9558 11.1048 13.2491V16H9.08881V13.2491Z" fill="#CCCCCC"/>
<path fill-rule="evenodd" clip-rule="evenodd" d="M2.88979 6.4C3.0261 5.28177 3.45474 3.90864 4.37601 2.71392C5.56173 1.17627 7.51544 0 10.5 0C13.4846 0 15.4383 1.17627 16.624 2.71392C17.5453 3.90864 17.9739 5.28177 18.1102 6.4H20.58V20H0.420013V6.4H2.88979ZM4.51736 6.4C4.64809 5.55926 4.98843 4.55306 5.65697 3.68608C6.52758 2.55707 8.00106 1.6 10.5 1.6C12.999 1.6 14.4725 2.55707 15.3431 3.68608C16.0116 4.55306 16.3519 5.55926 16.4827 6.4H4.51736ZM2.03281 8V18.4H18.9672V8H2.03281Z" fill="#CCCCCC"/>
</svg>
