<svg width="20" height="20" xmlns="http://www.w3.org/2000/svg" xmlns:xlink="http://www.w3.org/1999/xlink" xml:space="preserve" overflow="hidden"><defs><clipPath id="clip0"><rect x="572" y="410" width="20" height="20"/></clipPath><clipPath id="clip1"><rect x="572" y="410" width="20" height="20"/></clipPath><clipPath id="clip2"><rect x="572" y="411" width="19" height="19"/></clipPath><clipPath id="clip3"><rect x="572" y="411" width="19" height="19"/></clipPath></defs><g clip-path="url(#clip0)" transform="translate(-572 -410)"><g clip-path="url(#clip1)"><g clip-path="url(#clip2)"><g clip-path="url(#clip3)"><path d="M0.906529 0.906529 0.906529 15.411 19.0371 15.411 19.0371 0.906529 0.906529 0.906529ZM9.97182 8.97464 4.07938 2.71959 16.2269 2.71959 9.97182 8.97464ZM6.88962 8.15876 2.71959 12.4194 2.71959 3.80742 6.88962 8.15876ZM8.24942 9.33725 9.88117 11.1503 10.0625 11.0597 10.0625 11.1503 11.8755 9.15594 16.2269 13.6886 3.89808 13.6886 8.24942 9.33725ZM13.1447 7.8868 17.2241 3.80742 17.2241 12.3288 13.1447 7.8868Z" fill="#CCCCCC" fill-rule="nonzero" fill-opacity="1" transform="matrix(1 0 0 1.00549 571.482 391.293)"/><path d="M36.2612 7.25223 36.2612 6.07375C36.2612 3.17285 34.2668 0.906529 31.4566 0.906529L26.652 0.906529C23.7511 0.906529 21.7567 3.17285 21.7567 6.07375L21.7567 7.25223 19.9436 7.25223 19.9436 19.0371 38.0742 19.0371 38.0742 7.25223 36.2612 7.25223ZM23.5698 6.07375C23.5698 4.26069 24.7482 2.71959 26.5613 2.71959L31.3659 2.71959C33.179 2.71959 34.3575 4.17003 34.3575 6.07375L34.3575 7.25223 23.5698 7.25223 23.5698 6.07375ZM36.2612 17.2241 21.7567 17.2241 21.7567 9.06529 36.2612 9.06529 36.2612 17.2241Z" fill="#CCCCCC" fill-rule="nonzero" fill-opacity="1" transform="matrix(1 0 0 1.00549 571.482 391.293)"/><path d="M28.1024 13.6886 28.1024 15.411 29.9155 15.411 29.9155 13.6886C30.4594 13.4166 30.822 12.7821 30.822 12.1475 30.822 11.1503 30.0061 10.3344 29.0089 10.3344 28.0118 10.3344 27.1959 11.1503 27.1959 12.1475 27.1959 12.7821 27.5585 13.326 28.1024 13.6886Z" fill="#CCCCCC" fill-rule="nonzero" fill-opacity="1" transform="matrix(1 0 0 1.00549 571.482 391.293)"/><path d="M55.2983 7.25223 55.2983 6.07375C55.2983 3.17285 53.3039 0.906529 50.4937 0.906529L45.6891 0.906529C42.7882 0.906529 40.7938 3.17285 40.7938 6.07375L40.7938 7.25223 38.9808 7.25223 38.9808 19.0371 57.1113 19.0371 57.1113 7.25223 55.2983 7.25223ZM42.6069 6.07375C42.6069 4.26069 43.7854 2.71959 45.5984 2.71959L50.403 2.71959C52.2161 2.71959 53.3946 4.17003 53.3946 6.07375L53.3946 7.25223 42.6069 7.25223 42.6069 6.07375ZM40.7938 17.2241 40.7938 9.06529 55.2983 9.06529 55.2983 17.2241 40.7938 17.2241Z" fill="#CCCCCC" fill-rule="nonzero" fill-opacity="1" transform="matrix(1 0 0 1.00549 571.482 391.293)"/><path d="M50.1311 10.5157 47.4115 13.2353 46.1423 11.9662 44.8732 13.2353 47.5021 15.7736 48.1367 15.139 51.4002 11.7849Z" fill="#CCCCCC" fill-rule="nonzero" fill-opacity="1" transform="matrix(1 0 0 1.00549 571.482 391.293)"/><path d="M13.5073 30.9126C15.0484 29.8248 16.0456 28.0118 16.0456 26.0174 16.0456 22.6632 13.326 19.9436 9.97182 19.9436 6.61766 19.9436 3.89808 22.6632 3.89808 26.0174 3.89808 28.0118 4.89526 29.8248 6.3457 30.9126 3.35416 31.2753 0.906529 33.9042 0.906529 37.1677L0.906529 38.0742 19.0371 38.0742 19.0371 37.1677C19.0371 33.9042 16.6801 31.2753 13.5073 30.9126ZM10.0625 21.7567C12.4194 21.7567 14.3232 23.6604 14.3232 26.0174 14.3232 28.3744 12.4194 30.2781 10.0625 30.2781 7.7055 30.2781 5.80179 28.3744 5.80179 26.0174 5.80179 23.6604 7.7055 21.7567 10.0625 21.7567ZM2.90089 36.2612C3.35416 34.4481 5.16722 32.6351 7.34289 32.6351L12.7821 32.6351C14.9577 32.6351 16.7708 34.4481 17.2241 36.2612L2.90089 36.2612Z" fill="#CCCCCC" fill-rule="nonzero" fill-opacity="1" transform="matrix(1 0 0 1.00549 571.482 391.293)"/><path d="M19.9436 19.9436 19.9436 38.0742 34.4481 38.0742 34.4481 19.9436 19.9436 19.9436ZM32.6351 21.7567 32.6351 32.6351 21.7567 32.6351 21.7567 21.7567 32.6351 21.7567ZM26.38 35.3546C26.38 34.8107 26.7426 34.4481 27.2865 34.4481 27.8304 34.4481 28.1931 34.8107 28.1931 35.3546 28.1931 35.8986 27.8304 36.2612 27.2865 36.2612 26.8333 36.2612 26.38 35.8986 26.38 35.3546Z" fill="#CCCCCC" fill-rule="nonzero" fill-opacity="1" transform="matrix(1 0 0 1.00549 571.482 391.293)"/><path d="M76.6017 3.44481 74.0634 0.906529 65.6327 9.4279 61.0094 4.80461 58.4711 7.34289 65.6327 14.5045 68.171 11.9662Z" fill="#0073E9" fill-rule="nonzero" fill-opacity="1" transform="matrix(1 0 0 1.00549 571.482 391.293)"/><path d="M4.53265 42.6069 4.53265 69.8027 60.7375 69.8027 60.7375 42.6069 4.53265 42.6069ZM58.9244 67.9897 6.3457 67.9897 6.3457 44.4199 58.9244 44.4199 58.9244 67.9897Z" fill="#888888" fill-rule="nonzero" fill-opacity="1" transform="matrix(1 0 0 1.00549 571.482 391.293)"/><path d="M57.1113 38.9808 0.906529 38.9808 0.906529 40.7938 0.906529 66.1766 2.71959 66.1766 2.71959 40.7938 57.1113 40.7938Z" fill="#888888" fill-rule="nonzero" fill-opacity="1" transform="matrix(1 0 0 1.00549 571.482 391.293)"/><path d="M8.15876 46.233 15.411 46.233 15.411 47.1395 8.15876 47.1395Z" fill="#888888" fill-rule="nonzero" fill-opacity="1" transform="matrix(1 0 0 1.00549 571.482 391.293)"/><path d="M46.233 65.2701 57.1113 65.2701 57.1113 66.1766 46.233 66.1766Z" fill="#888888" fill-rule="nonzero" fill-opacity="1" transform="matrix(1 0 0 1.00549 571.482 391.293)"/></g></g></g></g></svg>